<svg width="234" height="79" viewBox="0 0 234 79" fill="none" xmlns="http://www.w3.org/2000/svg">
<path d="M116.989 28.249L108.682 55H104.187L98.3405 36.722C98.1802 36.278 98.0322 35.7353 97.8965 35.094C97.8225 35.4023 97.7485 35.6922 97.6745 35.9635C97.6005 36.2348 97.5203 36.4877 97.434 36.722L91.5325 55H87.0185L78.7305 28.249H82.893C83.3247 28.249 83.6823 28.3538 83.966 28.5635C84.262 28.7608 84.4593 29.0322 84.558 29.3775L89.109 45.38C89.2077 45.7747 89.3002 46.2063 89.3865 46.675C89.4852 47.1313 89.5838 47.6123 89.6825 48.118C89.7812 47.6 89.886 47.1128 89.997 46.6565C90.1203 46.2002 90.2498 45.7747 90.3855 45.38L95.6395 29.3775C95.7382 29.0938 95.9294 28.8348 96.213 28.6005C96.509 28.3662 96.8667 28.249 97.286 28.249H98.7475C99.1792 28.249 99.5307 28.3538 99.802 28.5635C100.073 28.7732 100.277 29.0445 100.413 29.3775L105.648 45.38C105.907 46.1447 106.141 47.0265 106.351 48.0255C106.511 47.0512 106.69 46.1693 106.888 45.38L111.439 29.3775C111.513 29.0692 111.698 28.804 111.994 28.582C112.302 28.36 112.666 28.249 113.085 28.249H116.989ZM125.268 32.208V39.6265H134.629V43.456H125.268V51.0225H137.145V55H120.273V28.249H137.145V32.208H125.268ZM163.293 55H158.335C157.99 55 157.712 54.9137 157.503 54.741C157.305 54.5683 157.145 54.371 157.022 54.149L150.824 43.8815C150.725 44.1898 150.608 44.455 150.473 44.677L144.534 54.149C144.386 54.3587 144.213 54.556 144.016 54.741C143.831 54.9137 143.584 55 143.276 55H138.633L147.513 41.236L138.984 28.249H143.942C144.287 28.249 144.534 28.2983 144.682 28.397C144.842 28.4833 144.99 28.6313 145.126 28.841L151.213 38.646C151.336 38.3377 151.484 38.0293 151.657 37.721L157.244 28.9335C157.379 28.6992 157.527 28.5265 157.688 28.4155C157.848 28.3045 158.051 28.249 158.298 28.249H163.053L154.45 41.0325L163.293 55ZM185.064 32.3375H176.998V55H172.021V32.3375H163.955V28.249H185.064V32.3375ZM184.72 52.484C184.72 52.1017 184.788 51.7378 184.923 51.3925C185.071 51.0472 185.269 50.7512 185.515 50.5045C185.762 50.2578 186.058 50.0605 186.403 49.9125C186.749 49.7645 187.119 49.6905 187.513 49.6905C187.908 49.6905 188.272 49.7645 188.605 49.9125C188.95 50.0605 189.246 50.2578 189.493 50.5045C189.752 50.7512 189.955 51.0472 190.103 51.3925C190.251 51.7378 190.325 52.1017 190.325 52.484C190.325 52.8787 190.251 53.2487 190.103 53.594C189.955 53.927 189.752 54.2168 189.493 54.4635C189.246 54.7102 188.95 54.9013 188.605 55.037C188.272 55.185 187.908 55.259 187.513 55.259C187.119 55.259 186.749 55.185 186.403 55.037C186.058 54.9013 185.762 54.7102 185.515 54.4635C185.269 54.2168 185.071 53.927 184.923 53.594C184.788 53.2487 184.72 52.8787 184.72 52.484Z" fill="#6A4DFF"/>
<path d="M209.022 44.899L205.766 36.0005C205.605 35.6058 205.439 35.1372 205.266 34.5945C205.094 34.0518 204.921 33.466 204.748 32.837C204.588 33.466 204.421 34.058 204.249 34.613C204.076 35.1557 203.91 35.6305 203.749 36.0375L200.512 44.899H209.022ZM217.809 55H213.961C213.53 55 213.178 54.8952 212.907 54.6855C212.635 54.4635 212.432 54.1922 212.296 53.8715L210.298 48.414H199.217L197.219 53.8715C197.12 54.1552 196.929 54.4142 196.645 54.6485C196.362 54.8828 196.01 55 195.591 55H191.706L202.232 28.249H207.301L217.809 55ZM225.573 55H220.578V28.249H225.573V55Z" fill="black"/>
<path d="M40.2859 36.087C42.5088 37.6829 42.5088 40.9895 40.2859 42.5855L17.5358 58.9195C14.8894 60.8196 11.203 58.9282 11.203 55.6702V23.0022C11.203 19.7442 14.8894 17.8528 17.5358 19.7529L40.2859 36.087Z" fill="#C9C0F8"/>
<path d="M40.2859 36.087C42.5088 37.6829 42.5088 40.9895 40.2859 42.5855L17.5358 58.9195C14.8894 60.8196 11.203 58.9282 11.203 55.6702V23.0022C11.203 19.7442 14.8894 17.8528 17.5358 19.7529L40.2859 36.087Z" fill="url(#paint0_linear_42_27)" fill-opacity="0.2"/>
<path d="M67.3082 34.6439C70.6096 37.0396 70.6096 41.9604 67.3082 44.3561L36.3847 66.7967C32.4182 69.6751 26.8607 66.8414 26.8607 61.9406L26.8607 17.0594C26.8607 12.1586 32.4182 9.32494 36.3847 12.2033L67.3082 34.6439Z" fill="#6A4DFF"/>
<defs>
<linearGradient id="paint0_linear_42_27" x1="44.8115" y1="39.3362" x2="0.000110626" y2="39.3362" gradientUnits="userSpaceOnUse">
<stop stop-color="#7156FE"/>
<stop offset="0.422981" stop-color="#6A4DFF"/>
<stop offset="0.499122" stop-color="#6A4DFF"/>
<stop offset="0.558313" stop-color="#6A4DFF"/>
<stop offset="0.623728" stop-color="#6A4DFF"/>
<stop offset="0.6872" stop-color="#6A4DFF"/>
<stop offset="0.746387" stop-color="#6A4DFF"/>
<stop offset="1" stop-opacity="0"/>
</linearGradient>
</defs>
</svg>
